<svg xmlns="http://www.w3.org/2000/svg" xmlns:xlink="http://www.w3.org/1999/xlink" version="1.1" x="0px" y="0px" viewBox="0 0 100 125" style="enable-background:new 0 0 100 100;" xml:space="preserve"><path d="M22.6,35c2.3-0.7,3.5-1,6-1.4c1.8-0.3,3.6-0.5,5.4-0.9c2.3-0.5,5.1-1.4,7.1-3.8c2.6-3.2,2.6-7.5,2.1-11.6  c0-0.3-0.2-0.6-0.5-0.8c-0.3-0.2-0.6-0.3-0.9-0.3l-2.4,0.3c-0.7,0.1-1.2,0.7-1.1,1.4c0.3,2.9,0.5,6.1-1,8c-1,1.2-2.8,1.8-4.4,2.1  c-1.6,0.4-3.4,0.6-5.1,0.9c-2.5,0.4-4,0.8-6.6,1.5c-5.5,1.6-9.7,4.8-11.7,9c-0.1,0.1-1.5,2.8-2.8,8.6C5.6,52.9,5,58.1,5,63.4v0.5  c0,0.7,0.6,1.2,1.2,1.2h2.4c0.7,0,1.2-0.6,1.2-1.2v-0.5c0-4.9,0.5-9.7,1.6-14.3c1.1-5.1,2.3-7.5,2.3-7.5  C15.8,37.5,20.1,35.7,22.6,35z"/><path d="M21,69.7l2,1.4c0.3,0.2,0.6,0.3,1,0.2c0.3-0.1,0.6-0.3,0.8-0.6c0.5-0.8,0.9-1.9,1.3-3.2c0.8,1.8,1.4,3.5,1.8,5.2  c0.9,3.3,1.3,6,1.1,7.7c-0.1,0.6,0.3,1.2,0.9,1.4l2.4,0.6c0.1,0,0.2,0,0.3,0c0.2,0,0.5-0.1,0.7-0.2c0.3-0.2,0.5-0.5,0.5-0.8  c0.4-2.4,0-5.7-1.2-9.8c-0.8-2.9-1.9-5.8-3.5-8.9c-0.6-1.2-1.1-2.5-1.6-3.8c0-0.2-0.1-0.4-0.2-0.6c-0.8-2.5-1-4.6-1.1-5.6  c-0.1-0.6-0.6-1.1-1.2-1.1c0,0,0,0,0,0l-2.4,0c-0.3,0-0.7,0.2-0.9,0.4s-0.3,0.6-0.3,0.9c0.1,1.3,0.4,3.9,1.4,7.1  c0,1.4-1.1,6.2-2.2,8.3C20.3,68.6,20.5,69.3,21,69.7z"/><path d="M90.6,39.4c-2.1-4.2-6.3-7.4-11.8-9.1c-2.6-0.8-4.1-1.2-6.7-1.6c-1.7-0.3-3.4-0.5-5-0.9c-1.6-0.4-3.4-0.9-4.4-2.1  c-1.5-1.8-1.4-5-1-8c0.1-0.7-0.4-1.3-1.1-1.4l-2.4-0.3c-0.3,0-0.7,0.1-0.9,0.3c-0.3,0.2-0.4,0.5-0.5,0.8c-0.5,4.2-0.5,8.4,2.1,11.6  c2,2.4,4.8,3.3,7.1,3.8c1.8,0.4,3.6,0.7,5.4,0.9c2.4,0.4,3.7,0.7,6,1.4c2.4,0.7,6.8,2.5,8.8,6.6c0,0,1.2,2.4,2.3,7.5  c1,4.6,1.6,9.4,1.6,14.3v0.5c0,0.7,0.6,1.2,1.2,1.2h2.4c0.7,0,1.2-0.6,1.2-1.2v-0.5c0-5.3-0.6-10.5-1.7-15.4  C92,42.1,90.6,39.5,90.6,39.4z"/><path d="M77.2,59.8c1-3.2,1.3-5.8,1.4-7c0-0.3-0.1-0.7-0.3-0.9s-0.6-0.4-0.9-0.4l-2.4,0c-0.7,0-1.2,0.5-1.3,1.1  c-0.1,1-0.3,3.1-1.1,5.6c-0.1,0.2-0.2,0.4-0.2,0.6c-0.4,1.3-1,2.6-1.6,3.8c-1.6,3.1-2.7,6-3.5,8.9c-1.1,4.1-1.5,7.5-1.2,9.8  c0.1,0.3,0.2,0.7,0.5,0.8c0.2,0.1,0.5,0.2,0.7,0.2c0.1,0,0.2,0,0.3,0l2.4-0.6c0.6-0.1,1-0.7,0.9-1.4c-0.2-1.7,0.2-4.4,1.1-7.7  c0.5-1.7,1.1-3.4,1.8-5.2c0.4,1.3,0.9,2.3,1.3,3.2c0.2,0.3,0.5,0.5,0.8,0.6c0.3,0.1,0.7,0,1-0.2l2-1.4c0.5-0.4,0.7-1.1,0.4-1.6  C78.3,66,77.2,61.2,77.2,59.8C77.2,59.8,77.2,59.8,77.2,59.8L77.2,59.8z"/><path d="M48,83.9h2.4c0.7,0,1.2-0.6,1.2-1.2v-30c0-0.7-0.6-1.2-1.2-1.2H48c-0.7,0-1.2,0.6-1.2,1.2v30C46.7,83.3,47.3,83.9,48,83.9z"/><text x="0" y="115" fill="#000000" font-size="5px" font-weight="bold" font-family="'Helvetica Neue', Helvetica, Arial-Unicode, Arial, Sans-serif">Created by Arfan Khan Kamol</text><text x="0" y="120" fill="#000000" font-size="5px" font-weight="bold" font-family="'Helvetica Neue', Helvetica, Arial-Unicode, Arial, Sans-serif">from the Noun Project</text></svg>