<svg xmlns="http://www.w3.org/2000/svg" xmlns:xlink="http://www.w3.org/1999/xlink" viewBox="0 0 55 111.25" version="1.1" x="0px" y="0px"><title>Shape_89</title><desc>Created with Sketch.</desc><g stroke="none" stroke-width="1" fill="none" fill-rule="evenodd"><g transform="translate(-139.000000, -1776.000000)" fill="#000000"><g transform="translate(138.000000, 1776.000000)"><path d="M16.51,24.74 C16.3150694,24.6803658 16.1414684,24.5657891 16.01,24.41 C13.4309164,21.7420784 11.4890788,18.5250552 10.33,15 C9.18577213,11.4514496 8.31325286,7.82096707 7.72,4.14 C7.57566011,3.67653577 7.60046528,3.17688889 7.79,2.73 C8.05786991,2.41786505 8.44868198,2.23825922 8.86,2.23825922 C9.27131802,2.23825922 9.66213009,2.41786505 9.93,2.73 C10.4492037,3.37850519 10.7564218,4.17098801 10.81,5 C11.53,9.28 12.2,13.65 14.15,17.53 C15.09,19.4 16.33,21.13 17.15,23.08 C17.3145741,23.418237 17.3804277,23.7960287 17.34,24.17 C17.2551584,24.5479484 16.8932088,24.7965162 16.51,24.74 L16.51,24.74 Z"/><path d="M17.68,39.64 C17.5080444,39.429745 17.4290138,39.1585874 17.4610781,38.8888694 C17.4931425,38.6191515 17.633543,38.3740801 17.85,38.21 C18.3151449,37.9079473 18.9062299,37.8774397 19.4,38.13 C19.8818063,38.372574 20.3075801,38.7131931 20.65,39.13 C23.2227323,42.0960306 24.667408,45.8741407 24.73,49.8 C24.8173111,51.0705113 24.5323535,52.3389202 23.91,53.45 C23.7933146,53.6792883 23.5927484,53.8547837 23.35,53.94 C23.11,54.01 22.79,53.85 22.79,53.59 C22.81,48.53 21.33,43.21 17.68,39.64 Z"/><path d="M23.58,67.42 C24.5692613,68.9169045 25.2492553,70.5964895 25.58,72.36 C25.84,74.68 24.88,76.96 24.73,79.3 C24.58,81.64 25.81,84.46 28.14,84.59 L52.2,86 C52.88,84.45 51.86,82.59 50.4,81.74 C48.8725303,81.0094606 47.2031226,80.6236874 45.51,80.61 C42.05,80.29 38.36,79.61 35.92,77.15 C33.48,74.69 32.86,71.07 32.34,67.67 L27.53,36.5 C26.87,32.24 26.21,27.93 26.59,23.64 C26.76,21.71 27.14,19.8 27.22,17.86 C27.43,12.92 25.73,8.13 24.22,3.4 C23.9797682,2.73460705 23.9042827,2.02092603 24,1.32 C24.0985862,0.597981893 24.6927163,0.0456919433 25.42,0 C26.32,0.05 26.78,1.08 27.04,1.94 C28.63,7.14 30.23,12.45 30.04,17.89 C29.98,20.04 29.64,22.17 29.56,24.31 C29.5383532,27.0140968 29.7289383,29.715723 30.13,32.39 L31.21,41.13 C32.54,51.9 33.89,62.72 37.04,73.13 C37.89,75.93 41.24,76.98 44.11,77.59 L52.33,79.36 C53.7627699,79.7904955 54.8281198,80.9953094 55.08,82.47 C55.3243573,83.9022843 55.2972191,85.3677448 55,86.79 C54.9590189,87.1758571 54.8507131,87.5515431 54.68,87.9 C54,89 52.42,89 51.13,88.89 C43.0833333,87.99 35.0066667,87.4733333 26.9,87.34 C24.62,87.34 22.74,85.34 22.13,83.12 C21.66284,80.8786536 21.7764365,78.5550889 22.46,76.37 C22.7805091,75.3554925 22.9226155,74.2930783 22.88,73.23 C22.7466344,72.3711521 22.4729856,71.5400706 22.07,70.77 C19.7168403,65.696357 16.689501,60.9636166 13.07,56.7 C9.25,52.23 8.84,45.7 9.93,39.94 C10.52,36.84 11.4,33.34 9.56,30.78 C4,23.07 2.44,13.28 1.06,3.9 C0.938837935,3.43500031 0.97397668,2.94305788 1.16,2.5 C1.63,1.68 2.97,1.86 3.56,2.59 C4.06446487,3.39370882 4.3121243,4.33202415 4.27,5.28 C4.87812797,14.4697669 7.88849259,23.3387907 13,31 C14.24,32.85 13.69,35.32 13.18,37.49 C12.06,42.29 11.46,47.49 13.57,51.99 C14.7762546,54.1721889 16.19658,56.2289808 17.81,58.13 C19.9199175,61.0918657 21.8339969,64.1884655 23.54,67.4 L23.58,67.42 Z"/></g></g></g><text x="0" y="104" fill="#000000" font-size="5px" font-weight="bold" font-family="'Helvetica Neue', Helvetica, Arial-Unicode, Arial, Sans-serif">Created by Kevin</text><text x="0" y="109" fill="#000000" font-size="5px" font-weight="bold" font-family="'Helvetica Neue', Helvetica, Arial-Unicode, Arial, Sans-serif">from the Noun Project</text></svg>